<svg xmlns="http://www.w3.org/2000/svg" width="100" height="100" viewBox="0 0 100 100"><path d="M86.558,49.58645,78.83829,37.82306a2.65708,2.65708,0,0,1-.36762-1.28662,33.05693,33.05693,0,0,0-65.98522,2.94085,37.33278,37.33278,0,0,0,13.1419,28.12183A1.54745,1.54745,0,0,1,26.17873,68.61V86.07131a5.21386,5.21386,0,0,0,4.77889,5.23838l26.1919,2.29753H57.609a4.93263,4.93263,0,0,0,3.49224-1.37852,5.23338,5.23338,0,0,0,1.74615-3.85985V77.24877h8.08737a7.76634,7.76634,0,0,0,7.71975-7.71972V58.77659h2.84892a5.88969,5.88969,0,0,0,5.23833-3.12465A5.76981,5.76981,0,0,0,86.558,49.58645ZM82.2386,53.2625a.76.76,0,0,1-.73525.45951h-4.5032A3.5886,3.5886,0,0,0,73.416,57.30617V69.621a2.56872,2.56872,0,0,1-2.57329,2.57324H61.65255a4.07957,4.07957,0,0,0-4.04369,4.04367L57.517,88.64456,31.2332,86.25512V68.79385a6.658,6.658,0,0,0-2.29754-4.96268A32.79935,32.79935,0,0,1,17.6318,39.5692a27.92563,27.92563,0,0,1,27.93805-27.938A27.59924,27.59924,0,0,1,73.3241,36.996a8.1792,8.1792,0,0,0,1.10277,3.49225L82.23849,52.3435A1.05161,1.05161,0,0,1,82.2386,53.2625Z" fill="#5881e8"/><path d="M49.52172,23.48644a3.4135,3.4135,0,0,0-3.49225-3.40035,3.47245,3.47245,0,0,0-3.49224,3.40035,3.41356,3.41356,0,0,0,1.838,3.03275V54.91673a3.41356,3.41356,0,0,0-1.838,3.03274,3.49225,3.49225,0,1,0,6.98449,0,3.41355,3.41355,0,0,0-1.838-3.03274V26.61109A3.67047,3.67047,0,0,0,49.52172,23.48644Z" fill="#5881e8"/><path d="M35.82838,28.81672a3.41355,3.41355,0,0,0,1.838-3.03274,3.47246,3.47246,0,0,0-3.40036-3.49226A3.551,3.551,0,0,0,30.7738,25.784a3.41354,3.41354,0,0,0,1.838,3.03274V35.066h4.9627v4.22747H30.3143a3.41358,3.41358,0,0,0-3.03274-1.838,3.44661,3.44661,0,1,0,0,6.8926A3.41353,3.41353,0,0,0,30.3143,42.51h7.26023V46.7375h-4.9627v6.2493a3.41354,3.41354,0,0,0-1.838,3.03274,3.49072,3.49072,0,0,0,3.49225,3.49226,3.4658,3.4658,0,0,0,1.56233-6.525V49.86215h4.9627V31.84947h-4.9627Z" fill="#5881e8"/><path d="M64.86921,37.36356a3.41352,3.41352,0,0,0-3.03274,1.838H54.57624V34.97412h4.9627V28.72483a3.41356,3.41356,0,0,0,1.838-3.03275,3.49071,3.49071,0,0,0-3.49225-3.49225,3.4658,3.4658,0,0,0-1.56233,6.525v3.12464h-4.9627V49.67835h5.05458V52.803a3.40816,3.40816,0,0,0,1.56233,6.4331,3.47246,3.47246,0,0,0,3.49225-3.40036,3.41354,3.41354,0,0,0-1.838-3.03274V46.5537H54.57624V42.32624h7.26023a3.41353,3.41353,0,0,0,3.03274,1.838,3.4725,3.4725,0,0,0,3.4923-3.40035A3.41347,3.41347,0,0,0,64.86921,37.36356Z" fill="#5881e8"/></svg>